<?xml version="1.0" encoding="UTF-8" standalone="no"?>
<!-- Created with Inkscape (http://www.inkscape.org/) -->

<svg
   xmlns:dc="http://purl.org/dc/elements/1.1/"
   xmlns:cc="http://creativecommons.org/ns#"
   xmlns:rdf="http://www.w3.org/1999/02/22-rdf-syntax-ns#"
   xmlns:svg="http://www.w3.org/2000/svg"
   xmlns="http://www.w3.org/2000/svg"
   xmlns:sodipodi="http://sodipodi.sourceforge.net/DTD/sodipodi-0.dtd"
   xmlns:inkscape="http://www.inkscape.org/namespaces/inkscape"
   width="210mm"
   height="297mm"
   viewBox="0 0 210 297"
   version="1.1"
   id="svg8"
   inkscape:version="0.92.1 r15371"
   sodipodi:docname="rat.svg">
  <defs
     id="defs2" />
  <sodipodi:namedview
     id="base"
     pagecolor="#ffffff"
     bordercolor="#666666"
     borderopacity="1.0"
     inkscape:pageopacity="0.0"
     inkscape:pageshadow="2"
     inkscape:zoom="1.465625"
     inkscape:cx="234.97493"
     inkscape:cy="580.91171"
     inkscape:document-units="mm"
     inkscape:current-layer="layer1"
     showgrid="false"
     showguides="false"
     inkscape:window-width="1600"
     inkscape:window-height="837"
     inkscape:window-x="-8"
     inkscape:window-y="-8"
     inkscape:window-maximized="1" />
  <metadata
     id="metadata5">
    <rdf:RDF>
      <cc:Work
         rdf:about="">
        <dc:format>image/svg+xml</dc:format>
        <dc:type
           rdf:resource="http://purl.org/dc/dcmitype/StillImage" />
        <dc:title></dc:title>
      </cc:Work>
    </rdf:RDF>
  </metadata>
  <g
     inkscape:label="Layer 1"
     inkscape:groupmode="layer"
     id="layer1">
    <g
       id="g4613">
      <g
         transform="matrix(1.0808199,0,0,1.1527849,-6.9054347,-16.406484)"
         id="g4569">
        <path
           style="fill:#ddb99d;fill-opacity:0.99494952;stroke:#59361e;stroke-width:0.1;stroke-miterlimit:4;stroke-dasharray:none;stroke-opacity:1"
           d="m 77.24747,117.66857 c 8.697769,-7.63872 6.736122,-7.36415 14.374839,1.33362 3.819358,4.34888 4.051336,9.93814 4.656447,16.35507 0.60511,6.41692 -0.02555,13.69115 -4.374434,17.51051 -4.348884,3.81936 -6.88365,4.06522 -9.731807,3.98102 -2.848156,-0.0842 -4.766286,-1.08744 -8.585643,-5.43633 -3.819358,-4.34888 -3.170757,-12.67652 -2.268062,-19.11288 0.902696,-6.43636 1.579777,-10.81166 5.92866,-14.63101 z"
           id="rect4498"
           inkscape:connector-curvature="0"
           sodipodi:nodetypes="ssssssss" />
        <path
           style="fill:#ddb99d;fill-opacity:0.99607843;stroke:#59361e;stroke-width:0.11209842;stroke-linecap:butt;stroke-linejoin:miter;stroke-miterlimit:4;stroke-dasharray:none;stroke-opacity:1"
           d="m 84.556909,155.47024 c 0,0 0.489544,0.13118 0.645276,0.2609 0.155732,0.12971 0.235361,0.21916 0.278881,0.43896 0.113324,0.57205 -0.852939,0.78218 -0.952595,1.65005 -0.40677,1.09334 -0.470605,2.02838 -0.491591,3.22343 0.12492,1.60999 0.98644,3.02497 1.610184,4.35852 0.802694,1.44775 1.773286,3.4063 1.928588,4.8063 0.155305,1.40016 0.221271,2.1102 0.01733,2.91596 -0.20397,0.8058 -1.002425,1.7505 -1.002425,1.7505 0,0 -1.471216,1.95692 -0.997521,1.20317 0.258266,-0.79801 0.79334,-2.19723 1.028424,-3.00935 0.324312,-1.44426 -0.189666,-2.95729 -0.810299,-4.21985 -1.076057,-2.15161 -2.473649,-4.01618 -3.555462,-6.16523 -0.484132,-0.99808 -1.026968,-1.99238 -1.28556,-3.12526 -0.128946,-1.10077 0.03492,-2.32307 0.691561,-3.12645 0.127041,-0.17721 0.262689,-0.34429 0.402005,-0.50608"
           id="path4558"
           inkscape:connector-curvature="0"
           sodipodi:nodetypes="czsccczzcccccccc" />
      </g>
      <g
         id="g4589">
        <path
           style="fill:#ddb99d;stroke:#59361e;stroke-width:0.1;stroke-miterlimit:4;stroke-dasharray:none;stroke-opacity:1;fill-opacity:0.99494952"
           d="m 74.087001,109.14583 c 1.059482,-2.11856 2.96271,-3.69864 4.523233,-5.48065 1.642583,-1.87572 2.59825,-5.561955 5.090197,-5.480655 3.085106,0.100652 3.853585,4.824075 5.84615,7.181545 1.352451,1.60014 3.201713,2.85407 4.145257,4.72471 0.934459,1.85262 2.624921,4.46704 1.322917,6.08265 -4.733056,5.8731 -17.96436,5.92786 -22.628647,0 -1.490373,-1.89412 0.622869,-4.87196 1.700893,-7.0276 z"
           id="rect4500"
           inkscape:connector-curvature="0"
           sodipodi:nodetypes="aaaaaaaa" />
        <path
           style="fill:#000000;stroke:#000000;stroke-width:0.26499999;stroke-miterlimit:4;stroke-dasharray:none;stroke-opacity:1;fill-opacity:1"
           d="m 83.698104,96.743487 c 0.718665,-0.0067 1.503395,1.188996 1.157552,1.81901 -0.363771,0.662672 -1.897904,0.659241 -2.267857,0 -0.347643,-0.619486 0.399971,-1.812366 1.110305,-1.81901 z"
           id="rect4503"
           inkscape:connector-curvature="0"
           sodipodi:nodetypes="aaaa" />
        <path
           style="fill:#000000;fill-opacity:1;stroke:#000000;stroke-width:0.26499999;stroke-miterlimit:4;stroke-dasharray:none;stroke-opacity:1"
           d="m 78.803237,111.92997 c -0.06479,0.46549 -0.65571,0.92066 -1.130856,0.85453 -0.475146,-0.0661 -0.09969,-0.87483 0.04265,-1.27583 0.213482,-0.6014 0.912167,-1.93821 1.156784,-1.52553 0.306634,0.51731 0.01432,1.35122 -0.06858,1.94683 z"
           id="path4506"
           inkscape:connector-curvature="0"
           sodipodi:nodetypes="ccacc" />
        <path
           sodipodi:nodetypes="ccacc"
           inkscape:connector-curvature="0"
           id="path4509"
           d="m 88.168378,112.33088 c 0.06479,0.46549 0.65571,0.92066 1.130856,0.85453 0.475146,-0.0661 0.09969,-0.87483 -0.04265,-1.27583 -0.213482,-0.6014 -0.912167,-1.93821 -1.156784,-1.52553 -0.306634,0.51731 -0.01432,1.35122 0.06858,1.94683 z"
           style="fill:#000000;fill-opacity:1;stroke:#000000;stroke-width:0.26499999;stroke-miterlimit:4;stroke-dasharray:none;stroke-opacity:1" />
        <g
           id="g4523">
          <path
             sodipodi:nodetypes="ssssscs"
             inkscape:connector-curvature="0"
             id="path4511"
             d="m 75.790917,121.53595 c -0.650697,1.38466 -1.189044,3.10257 -2.542483,3.57435 -1.353443,0.4718 -2.091186,1.33885 -3.505763,0.67411 -1.414579,-0.66476 -1.150153,-1.93039 -1.650747,-3.27342 -0.500591,-1.34307 0.945113,-2.72265 1.595821,-4.10736 1.3014,-2.76936 5.870042,-4.24407 5.870042,-4.24407 0,0 1.534537,4.607 0.23313,7.37639 z"
             style="fill:#ddb99d;fill-opacity:0.99494952;stroke:#59361e;stroke-width:0.11930919;stroke-miterlimit:4;stroke-dasharray:none;stroke-opacity:1" />
          <ellipse
             ry="1.9483405"
             rx="1.9483407"
             cy="115.41146"
             cx="74.968719"
             id="path4519"
             style="fill:#ddb99d;fill-opacity:0.99494952;stroke:none;stroke-width:0.10331889;stroke-miterlimit:4;stroke-dasharray:none;stroke-opacity:1" />
        </g>
        <g
           id="g4529"
           transform="matrix(-1,0,0,1,167.16304,-0.80180859)">
          <path
             style="fill:#ddb99d;fill-opacity:0.99494952;stroke:#59361e;stroke-width:0.11930919;stroke-miterlimit:4;stroke-dasharray:none;stroke-opacity:1"
             d="m 75.790917,121.53595 c -0.650697,1.38466 -1.189044,3.10257 -2.542483,3.57435 -1.353443,0.4718 -2.091186,1.33885 -3.505763,0.67411 -1.414579,-0.66476 -1.150153,-1.93039 -1.650747,-3.27342 -0.500591,-1.34307 0.945113,-2.72265 1.595821,-4.10736 1.3014,-2.76936 5.870042,-4.24407 5.870042,-4.24407 0,0 1.534537,4.607 0.23313,7.37639 z"
             id="path4525"
             inkscape:connector-curvature="0"
             sodipodi:nodetypes="ssssscs" />
          <ellipse
             style="fill:#ddb99d;fill-opacity:0.99494952;stroke:none;stroke-width:0.10331889;stroke-miterlimit:4;stroke-dasharray:none;stroke-opacity:1"
             id="ellipse4527"
             cx="74.968719"
             cy="115.41146"
             rx="1.9483407"
             ry="1.9483405" />
        </g>
        <g
           id="g4546">
          <path
             inkscape:connector-curvature="0"
             id="path4533"
             d="m 86.194422,100.62371 c 0.08909,-0.0446 0.178178,-0.0891 0.267269,-0.13364 0,-0.0223 -0.01574,-0.0511 0,-0.0668 0.0315,-0.0315 0.102137,0.0315 0.133635,0 0.01574,-0.0157 -0.01574,-0.0511 0,-0.0668 0.01574,-0.0157 0.0469,0.01 0.06682,0 0.02817,-0.0141 0.03864,-0.0527 0.06682,-0.0668 0.01992,-0.01 0.0469,0.01 0.06682,0 0.02817,-0.0141 0.03865,-0.0527 0.06682,-0.0668 0.01992,-0.01 0.0469,0.01 0.06682,0 0.221605,-0.2216 -0.063,0.0315 0.133633,-0.0668 0.02817,-0.0141 0.03865,-0.0527 0.06682,-0.0668 0.01992,-0.01 0.0469,0.01 0.06682,0 0.02817,-0.0141 0.03865,-0.0527 0.06682,-0.0668 0.03984,-0.0199 0.102137,0.0315 0.133633,0 0.01574,-0.0157 -0.01574,-0.05106 0,-0.06682 0.0315,-0.0315 0.0938,0.01992 0.133636,0 0.02817,-0.01408 0.03864,-0.05273 0.06682,-0.06682 0.01992,-0.0099 0.04454,0 0.06682,0 0.02228,-0.02228 0.03865,-0.05273 0.06682,-0.06682 0.05345,-0.02673 0.146998,0.02673 0.200451,0 0.02817,-0.01408 0.03865,-0.05273 0.06682,-0.06682 0.05345,-0.02673 0.146997,0.02672 0.200451,0 0.02817,-0.01408 0.03694,-0.05686 0.06682,-0.06682 0.03056,-0.01019 0.237538,0.01487 0.267269,0 0.02817,-0.01408 0.03694,-0.05686 0.06682,-0.06682 0.0342,-0.0114 0.353136,0 0.400904,0 0.02228,0 0.04569,0.007 0.06682,0 0.04725,-0.01574 0.08639,-0.05107 0.133633,-0.06682 0.02114,-0.007 0.04455,0 0.06682,0 0.04454,0 0.08909,0 0.133636,0 0.155906,0 0.311814,0 0.467722,0 0.06949,0 0.348343,-0.01315 0.400902,0 0.04832,0.01209 0.08532,0.05474 0.133636,0.06682 0.04322,0.01079 0.08909,0 0.133636,0 0.133633,0 0.267269,0 0.400904,0 0.06682,0 0.134933,-0.0131 0.200451,0 0.04884,0.0098 0.08532,0.05474 0.133636,0.06682 0.04322,0.0108 0.08909,0 0.133633,0 0.06682,0 0.133636,0 0.200454,0 0.04454,0 0.08995,-0.0087 0.133633,0 0.06906,0.01381 0.131389,0.053 0.200454,0.06682 0.04368,0.0087 0.08909,0 0.133633,0 0.133635,0 0.268303,-0.01656 0.400904,0 0.04942,0.0062 0.0848,0.05705 0.133636,0.06682 0.13104,0.02622 0.269864,-0.02622 0.400905,0 0.04883,0.0098 0.08433,0.05978 0.133633,0.06682 0.110244,0.01574 0.223586,-0.01381 0.334087,0 0.06989,0.0087 0.131389,0.053 0.200453,0.06682 0.109199,0.02185 0.22424,-0.01831 0.334087,0 0.06947,0.01159 0.130979,0.05524 0.200451,0.06682 0.06591,0.011 0.134046,-0.007 0.200453,0 0.13465,0.015 0.266256,0.0519 0.400905,0.0668 0.06641,0.007 0.134932,-0.0131 0.200451,0 0.04884,0.01 0.0848,0.057 0.133636,0.0668 0.06552,0.0131 0.134543,-0.011 0.200451,0 0.06947,0.0116 0.130979,0.0552 0.200453,0.0668 0.109847,0.0183 0.224886,-0.0219 0.334087,0 0.692145,0.23072 -0.276307,-0.0686 0.400905,0.0668 0.04883,0.01 0.0848,0.0571 0.133633,0.0668 0.108119,0.0328 0.224888,-0.0218 0.334087,0 0.06906,0.0138 0.130979,0.0552 0.200453,0.0668 0.157237,0.0262 0.380889,-0.0307 0.534538,0 0.04884,0.01 0.08433,0.0598 0.133636,0.0668 0.110244,0.0157 0.222723,0 0.334086,0 0.04455,0 0.09042,-0.0108 0.133636,0 0.04832,0.0121 0.08532,0.0547 0.133633,0.0668 0.05256,0.0131 0.33142,0 0.400905,0 0.04454,0 0.09042,-0.0108 0.133636,0 0.04832,0.0121 0.0848,0.0571 0.133633,0.0668 0.109201,0.0218 0.226049,-0.027 0.334086,0 0.04832,0.0121 0.0848,0.057 0.133636,0.0668 0.06552,0.0131 0.133636,0 0.200454,0 0.133633,0 0.267269,0 0.400902,0 0.04454,0 0.09138,-0.0141 0.133643,0 0.0472,0.0158 0.0864,0.0511 0.13364,0.0668 0.0422,0.0141 0.0891,0 0.13363,0 0.11136,0 0.22272,0 0.33409,0 0.0223,0 0.0445,0 0.0668,0 0.0223,0 0.0511,-0.0157 0.0668,0 0.0157,0.0157 -0.0157,0.0511 0,0.0668 0.003,0.003 0.30258,0 0.33409,0"
             style="fill:none;stroke:#000000;stroke-width:0.26499999;stroke-linecap:round;stroke-linejoin:round;stroke-miterlimit:4;stroke-dasharray:none;stroke-opacity:1" />
          <path
             inkscape:connector-curvature="0"
             id="path4539"
             d="m 86.328057,101.09144 c 0.05357,-0.28163 0.232508,-0.016 0.334087,-0.0668 0.02817,-0.0141 0.03865,-0.0527 0.06682,-0.0668 0.01992,-0.01 0.04454,0 0.06682,0 0.04736,0 0.38363,0.009 0.400905,0 0.02817,-0.0141 0.03865,-0.0527 0.06682,-0.0668 0.01757,-0.009 0.23233,0 0.267269,0 0.222726,0 0.445449,0 0.668173,0 0.334089,0 0.668176,0 1.002263,0 0.11136,0 0.222723,0 0.334087,0 0.02228,0 0.04454,0 0.06682,0 0.02228,0 0.0469,-0.01 0.06682,0 0.02817,0.0141 0.03865,0.0527 0.06682,0.0668 0.02035,0.0102 0.170359,0 0.200453,0 0.178178,0 0.356359,0 0.534538,0 0.03494,0 0.2497,-0.009 0.267269,0 0.02817,0.0141 0.03864,0.0527 0.06682,0.0668 0.01992,0.01 0.04454,0 0.06682,0 0.06682,0 0.133636,0 0.200451,0 0.244999,0 0.489996,0 0.734992,0 0.467722,0 0.935445,0 1.403165,0 0.178181,0 0.356362,0 0.53454,0 0.05657,0 0.231349,-0.012 0.267269,0 0.02988,0.01 0.03865,0.0527 0.06682,0.0668 0.02032,0.0102 0.22113,0 0.267268,0 0.178181,0 0.35636,0 0.534541,0 0.133633,0 0.267269,0 0.400904,0 0.0439,0 0.162754,-0.0126 0.200451,0 0.04725,0.0157 0.08532,0.0547 0.133636,0.0668 0.04322,0.0108 0.08909,0 0.133633,0 0.133636,0 0.267272,0 0.400905,0 0.155908,0 0.311814,0 0.467722,0 0.02228,0 0.04455,0 0.06682,0 0.02228,0 0.04689,-0.01 0.06682,0 0.02817,0.0141 0.03864,0.0527 0.06681,0.0668 0.01992,0.01 0.04455,0 0.06682,0 0.06682,0 0.133636,0 0.200454,0 0.11136,0 0.222723,0 0.334086,0 0.03009,0 0.180118,-0.0102 0.200451,0 0.02817,0.0141 0.03865,0.0527 0.06682,0.0668 0.02035,0.0102 0.17036,0 0.200451,0 0.133636,0 0.267272,0 0.400905,0 0.03009,0 0.180118,-0.0102 0.200454,0 0.02817,0.0141 0.03865,0.0527 0.06682,0.0668 0.01728,0.009 0.353545,0 0.400902,0"
             style="fill:none;stroke:#000000;stroke-width:0.26458332px;stroke-linecap:round;stroke-linejoin:round;stroke-opacity:1" />
          <path
             inkscape:connector-curvature="0"
             id="path4541"
             d="m 86.359052,101.58615 c 0.0038,-0.68876 0.260134,-0.0531 0.369799,-0.12266 0.01879,-0.0119 -0.0042,-0.0533 0.01461,-0.0652 0.01879,-0.0119 0.04358,0.02 0.0652,0.0146 0.03057,-0.008 0.04923,-0.043 0.07979,-0.0506 0.02155,-0.005 0.04357,0.02 0.0652,0.0146 0.331803,-0.0824 -0.28267,-0.0354 0.224795,-0.0866 0.0221,-0.002 0.04359,0.02 0.0652,0.0146 0.03057,-0.008 0.04847,-0.0475 0.07979,-0.0506 0.04431,-0.005 0.08689,0.0198 0.130402,0.0292 0.02169,0.005 0.04358,0.02 0.0652,0.0146 0.03057,-0.008 0.04923,-0.043 0.07979,-0.0506 0.02155,-0.005 0.04353,0.009 0.0652,0.0146 0.04353,0.009 0.0861,0.0337 0.130402,0.0292 0.03138,-0.003 0.04923,-0.043 0.07979,-0.0506 0.04323,-0.0107 0.08719,0.0399 0.130405,0.0292 0.03057,-0.008 0.04831,-0.0498 0.07979,-0.0506 0.06679,-0.002 0.130402,0.0292 0.195618,0.0437 0.0217,0.005 0.04305,0.0168 0.0652,0.0146 0.04953,-0.005 0.09546,-0.031 0.145003,-0.0361 0.04431,-0.005 0.08608,0.0337 0.130402,0.0292 0.04956,-0.005 0.09522,-0.0372 0.145004,-0.0361 0.06677,0.002 0.130401,0.0292 0.195618,0.0437 0.04352,0.009 0.08608,0.0338 0.130404,0.0292 0.03138,-0.003 0.04848,-0.0475 0.07979,-0.0506 0.06307,-0.007 0.13254,0.0503 0.195618,0.0437 0.04954,-0.005 0.09521,-0.0348 0.145004,-0.0361 0.0446,-0.002 0.08689,0.0198 0.130402,0.0292 0.108718,0.024 0.217349,0.0486 0.326021,0.073 0.04353,0.009 0.08588,0.0303 0.130404,0.0292 0.04973,-7.9e-4 0.09526,-0.0387 0.145004,-0.036 0.08895,0.005 0.173874,0.0389 0.260821,0.0583 0.04351,0.009 0.08588,0.0303 0.130404,0.0292 0.04973,-8e-4 0.09534,-0.0399 0.145001,-0.036 0.110948,0.009 0.21735,0.0486 0.326021,0.073 0.130405,0.0292 0.260823,0.0583 0.391225,0.0876 0.04351,0.009 0.08582,0.0284 0.130404,0.0292 0.07047,10e-4 0.139998,-0.027 0.210203,-0.0214 0.08882,0.007 0.173877,0.0389 0.260822,0.0583 0.152146,0.034 0.304293,0.0681 0.456424,0.10219 0.0652,0.0146 0.128817,0.0422 0.195621,0.0438 0.04979,10e-4 0.09535,-0.0399 0.145001,-0.0361 0.110948,0.009 0.21735,0.0486 0.326021,0.073 0.04353,0.009 0.09059,0.009 0.130405,0.0292 0.0445,0.0224 0.07028,0.0743 0.115819,0.0944 0.06044,0.0268 0.444268,0.0994 0.52164,0.11671 0.152147,0.034 0.304293,0.0681 0.45644,0.10209 0.04351,0.009 0.08582,0.0284 0.130402,0.0292 0.07047,10e-4 0.139798,-0.0231 0.210206,-0.0214 0.04463,4.7e-4 0.08688,0.0198 0.130404,0.0292 0.173873,0.0389 0.347751,0.0779 0.521639,0.11671 0.369495,0.0827 0.73899,0.16535 1.108485,0.24803 0.08689,0.0198 0.171739,0.0564 0.26082,0.0584 0.07047,0.001 0.141467,-0.0368 0.210206,-0.0214 0.0896,0.0202 0.159362,0.0938 0.246235,0.12352 0.147457,0.0506 0.304293,0.0681 0.456442,0.1021 0.282548,0.0632 0.56512,0.12641 0.847667,0.18967 0.0943,0.0209 0.390658,0.0729 0.456439,0.10209 0.04544,0.0204 0.07028,0.0743 0.115813,0.0944 0.101779,0.0452 0.217349,0.0486 0.32603,0.073 0.282542,0.0633 0.565123,0.12642 0.847673,0.18968 0.0364,0.008 0.2984,0.0563 0.32601,0.073 0.027,0.0163 0.0236,0.0636 0.0506,0.0798 0.0353,0.0212 0.33526,0.075 0.39123,0.0876 0.0217,0.005 0.0462,0.003 0.0652,0.0146 0.0426,0.0257 0.0713,0.072 0.11582,0.0944 0.0398,0.02 0.0869,0.0198 0.1304,0.0292 0.10871,0.024 0.21735,0.0486 0.32602,0.073 0.0435,0.009 0.0922,0.006 0.13041,0.0292 0.027,0.0163 0.0235,0.0636 0.0506,0.0798 0.0472,0.0283 0.35934,0.0618 0.39124,0.0876 0.0245,0.02 0.0262,0.0598 0.0506,0.0798 0.0366,0.0298 0.28949,0.0432 0.32602,0.073 0.0245,0.02 0.0262,0.0598 0.0506,0.0798 0.0176,0.0144 0.16624,0.0372 0.19561,0.0437"
             style="fill:none;stroke:#000000;stroke-width:0.26458332px;stroke-linecap:round;stroke-linejoin:round;stroke-opacity:1" />
        </g>
        <g
           id="g4554"
           transform="matrix(-1,0,0,1,167.72781,-0.26726951)">
          <path
             style="fill:none;stroke:#000000;stroke-width:0.26499999;stroke-linecap:round;stroke-linejoin:round;stroke-miterlimit:4;stroke-dasharray:none;stroke-opacity:1"
             d="m 86.194422,100.62371 c 0.08909,-0.0446 0.178178,-0.0891 0.267269,-0.13364 0,-0.0223 -0.01574,-0.0511 0,-0.0668 0.0315,-0.0315 0.102137,0.0315 0.133635,0 0.01574,-0.0157 -0.01574,-0.0511 0,-0.0668 0.01574,-0.0157 0.0469,0.01 0.06682,0 0.02817,-0.0141 0.03864,-0.0527 0.06682,-0.0668 0.01992,-0.01 0.0469,0.01 0.06682,0 0.02817,-0.0141 0.03865,-0.0527 0.06682,-0.0668 0.01992,-0.01 0.0469,0.01 0.06682,0 0.221605,-0.2216 -0.063,0.0315 0.133633,-0.0668 0.02817,-0.0141 0.03865,-0.0527 0.06682,-0.0668 0.01992,-0.01 0.0469,0.01 0.06682,0 0.02817,-0.0141 0.03865,-0.0527 0.06682,-0.0668 0.03984,-0.0199 0.102137,0.0315 0.133633,0 0.01574,-0.0157 -0.01574,-0.05106 0,-0.06682 0.0315,-0.0315 0.0938,0.01992 0.133636,0 0.02817,-0.01408 0.03864,-0.05273 0.06682,-0.06682 0.01992,-0.0099 0.04454,0 0.06682,0 0.02228,-0.02228 0.03865,-0.05273 0.06682,-0.06682 0.05345,-0.02673 0.146998,0.02673 0.200451,0 0.02817,-0.01408 0.03865,-0.05273 0.06682,-0.06682 0.05345,-0.02673 0.146997,0.02672 0.200451,0 0.02817,-0.01408 0.03694,-0.05686 0.06682,-0.06682 0.03056,-0.01019 0.237538,0.01487 0.267269,0 0.02817,-0.01408 0.03694,-0.05686 0.06682,-0.06682 0.0342,-0.0114 0.353136,0 0.400904,0 0.02228,0 0.04569,0.007 0.06682,0 0.04725,-0.01574 0.08639,-0.05107 0.133633,-0.06682 0.02114,-0.007 0.04455,0 0.06682,0 0.04454,0 0.08909,0 0.133636,0 0.155906,0 0.311814,0 0.467722,0 0.06949,0 0.348343,-0.01315 0.400902,0 0.04832,0.01209 0.08532,0.05474 0.133636,0.06682 0.04322,0.01079 0.08909,0 0.133636,0 0.133633,0 0.267269,0 0.400904,0 0.06682,0 0.134933,-0.0131 0.200451,0 0.04884,0.0098 0.08532,0.05474 0.133636,0.06682 0.04322,0.0108 0.08909,0 0.133633,0 0.06682,0 0.133636,0 0.200454,0 0.04454,0 0.08995,-0.0087 0.133633,0 0.06906,0.01381 0.131389,0.053 0.200454,0.06682 0.04368,0.0087 0.08909,0 0.133633,0 0.133635,0 0.268303,-0.01656 0.400904,0 0.04942,0.0062 0.0848,0.05705 0.133636,0.06682 0.13104,0.02622 0.269864,-0.02622 0.400905,0 0.04883,0.0098 0.08433,0.05978 0.133633,0.06682 0.110244,0.01574 0.223586,-0.01381 0.334087,0 0.06989,0.0087 0.131389,0.053 0.200453,0.06682 0.109199,0.02185 0.22424,-0.01831 0.334087,0 0.06947,0.01159 0.130979,0.05524 0.200451,0.06682 0.06591,0.011 0.134046,-0.007 0.200453,0 0.13465,0.015 0.266256,0.0519 0.400905,0.0668 0.06641,0.007 0.134932,-0.0131 0.200451,0 0.04884,0.01 0.0848,0.057 0.133636,0.0668 0.06552,0.0131 0.134543,-0.011 0.200451,0 0.06947,0.0116 0.130979,0.0552 0.200453,0.0668 0.109847,0.0183 0.224886,-0.0219 0.334087,0 0.692145,0.23072 -0.276307,-0.0686 0.400905,0.0668 0.04883,0.01 0.0848,0.0571 0.133633,0.0668 0.108119,0.0328 0.224888,-0.0218 0.334087,0 0.06906,0.0138 0.130979,0.0552 0.200453,0.0668 0.157237,0.0262 0.380889,-0.0307 0.534538,0 0.04884,0.01 0.08433,0.0598 0.133636,0.0668 0.110244,0.0157 0.222723,0 0.334086,0 0.04455,0 0.09042,-0.0108 0.133636,0 0.04832,0.0121 0.08532,0.0547 0.133633,0.0668 0.05256,0.0131 0.33142,0 0.400905,0 0.04454,0 0.09042,-0.0108 0.133636,0 0.04832,0.0121 0.0848,0.0571 0.133633,0.0668 0.109201,0.0218 0.226049,-0.027 0.334086,0 0.04832,0.0121 0.0848,0.057 0.133636,0.0668 0.06552,0.0131 0.133636,0 0.200454,0 0.133633,0 0.267269,0 0.400902,0 0.04454,0 0.09138,-0.0141 0.133643,0 0.0472,0.0158 0.0864,0.0511 0.13364,0.0668 0.0422,0.0141 0.0891,0 0.13363,0 0.11136,0 0.22272,0 0.33409,0 0.0223,0 0.0445,0 0.0668,0 0.0223,0 0.0511,-0.0157 0.0668,0 0.0157,0.0157 -0.0157,0.0511 0,0.0668 0.003,0.003 0.30258,0 0.33409,0"
             id="path4548"
             inkscape:connector-curvature="0" />
          <path
             style="fill:none;stroke:#000000;stroke-width:0.26458332px;stroke-linecap:round;stroke-linejoin:round;stroke-opacity:1"
             d="m 86.328057,101.09144 c 0.05357,-0.28163 0.232508,-0.016 0.334087,-0.0668 0.02817,-0.0141 0.03865,-0.0527 0.06682,-0.0668 0.01992,-0.01 0.04454,0 0.06682,0 0.04736,0 0.38363,0.009 0.400905,0 0.02817,-0.0141 0.03865,-0.0527 0.06682,-0.0668 0.01757,-0.009 0.23233,0 0.267269,0 0.222726,0 0.445449,0 0.668173,0 0.334089,0 0.668176,0 1.002263,0 0.11136,0 0.222723,0 0.334087,0 0.02228,0 0.04454,0 0.06682,0 0.02228,0 0.0469,-0.01 0.06682,0 0.02817,0.0141 0.03865,0.0527 0.06682,0.0668 0.02035,0.0102 0.170359,0 0.200453,0 0.178178,0 0.356359,0 0.534538,0 0.03494,0 0.2497,-0.009 0.267269,0 0.02817,0.0141 0.03864,0.0527 0.06682,0.0668 0.01992,0.01 0.04454,0 0.06682,0 0.06682,0 0.133636,0 0.200451,0 0.244999,0 0.489996,0 0.734992,0 0.467722,0 0.935445,0 1.403165,0 0.178181,0 0.356362,0 0.53454,0 0.05657,0 0.231349,-0.012 0.267269,0 0.02988,0.01 0.03865,0.0527 0.06682,0.0668 0.02032,0.0102 0.22113,0 0.267268,0 0.178181,0 0.35636,0 0.534541,0 0.133633,0 0.267269,0 0.400904,0 0.0439,0 0.162754,-0.0126 0.200451,0 0.04725,0.0157 0.08532,0.0547 0.133636,0.0668 0.04322,0.0108 0.08909,0 0.133633,0 0.133636,0 0.267272,0 0.400905,0 0.155908,0 0.311814,0 0.467722,0 0.02228,0 0.04455,0 0.06682,0 0.02228,0 0.04689,-0.01 0.06682,0 0.02817,0.0141 0.03864,0.0527 0.06681,0.0668 0.01992,0.01 0.04455,0 0.06682,0 0.06682,0 0.133636,0 0.200454,0 0.11136,0 0.222723,0 0.334086,0 0.03009,0 0.180118,-0.0102 0.200451,0 0.02817,0.0141 0.03865,0.0527 0.06682,0.0668 0.02035,0.0102 0.17036,0 0.200451,0 0.133636,0 0.267272,0 0.400905,0 0.03009,0 0.180118,-0.0102 0.200454,0 0.02817,0.0141 0.03865,0.0527 0.06682,0.0668 0.01728,0.009 0.353545,0 0.400902,0"
             id="path4550"
             inkscape:connector-curvature="0" />
          <path
             style="fill:none;stroke:#000000;stroke-width:0.26458332px;stroke-linecap:round;stroke-linejoin:round;stroke-opacity:1"
             d="m 86.359052,101.58615 c 0.0038,-0.68876 0.260134,-0.0531 0.369799,-0.12266 0.01879,-0.0119 -0.0042,-0.0533 0.01461,-0.0652 0.01879,-0.0119 0.04358,0.02 0.0652,0.0146 0.03057,-0.008 0.04923,-0.043 0.07979,-0.0506 0.02155,-0.005 0.04357,0.02 0.0652,0.0146 0.331803,-0.0824 -0.28267,-0.0354 0.224795,-0.0866 0.0221,-0.002 0.04359,0.02 0.0652,0.0146 0.03057,-0.008 0.04847,-0.0475 0.07979,-0.0506 0.04431,-0.005 0.08689,0.0198 0.130402,0.0292 0.02169,0.005 0.04358,0.02 0.0652,0.0146 0.03057,-0.008 0.04923,-0.043 0.07979,-0.0506 0.02155,-0.005 0.04353,0.009 0.0652,0.0146 0.04353,0.009 0.0861,0.0337 0.130402,0.0292 0.03138,-0.003 0.04923,-0.043 0.07979,-0.0506 0.04323,-0.0107 0.08719,0.0399 0.130405,0.0292 0.03057,-0.008 0.04831,-0.0498 0.07979,-0.0506 0.06679,-0.002 0.130402,0.0292 0.195618,0.0437 0.0217,0.005 0.04305,0.0168 0.0652,0.0146 0.04953,-0.005 0.09546,-0.031 0.145003,-0.0361 0.04431,-0.005 0.08608,0.0337 0.130402,0.0292 0.04956,-0.005 0.09522,-0.0372 0.145004,-0.0361 0.06677,0.002 0.130401,0.0292 0.195618,0.0437 0.04352,0.009 0.08608,0.0338 0.130404,0.0292 0.03138,-0.003 0.04848,-0.0475 0.07979,-0.0506 0.06307,-0.007 0.13254,0.0503 0.195618,0.0437 0.04954,-0.005 0.09521,-0.0348 0.145004,-0.0361 0.0446,-0.002 0.08689,0.0198 0.130402,0.0292 0.108718,0.024 0.217349,0.0486 0.326021,0.073 0.04353,0.009 0.08588,0.0303 0.130404,0.0292 0.04973,-7.9e-4 0.09526,-0.0387 0.145004,-0.036 0.08895,0.005 0.173874,0.0389 0.260821,0.0583 0.04351,0.009 0.08588,0.0303 0.130404,0.0292 0.04973,-8e-4 0.09534,-0.0399 0.145001,-0.036 0.110948,0.009 0.21735,0.0486 0.326021,0.073 0.130405,0.0292 0.260823,0.0583 0.391225,0.0876 0.04351,0.009 0.08582,0.0284 0.130404,0.0292 0.07047,10e-4 0.139998,-0.027 0.210203,-0.0214 0.08882,0.007 0.173877,0.0389 0.260822,0.0583 0.152146,0.034 0.304293,0.0681 0.456424,0.10219 0.0652,0.0146 0.128817,0.0422 0.195621,0.0438 0.04979,10e-4 0.09535,-0.0399 0.145001,-0.0361 0.110948,0.009 0.21735,0.0486 0.326021,0.073 0.04353,0.009 0.09059,0.009 0.130405,0.0292 0.0445,0.0224 0.07028,0.0743 0.115819,0.0944 0.06044,0.0268 0.444268,0.0994 0.52164,0.11671 0.152147,0.034 0.304293,0.0681 0.45644,0.10209 0.04351,0.009 0.08582,0.0284 0.130402,0.0292 0.07047,10e-4 0.139798,-0.0231 0.210206,-0.0214 0.04463,4.7e-4 0.08688,0.0198 0.130404,0.0292 0.173873,0.0389 0.347751,0.0779 0.521639,0.11671 0.369495,0.0827 0.73899,0.16535 1.108485,0.24803 0.08689,0.0198 0.171739,0.0564 0.26082,0.0584 0.07047,0.001 0.141467,-0.0368 0.210206,-0.0214 0.0896,0.0202 0.159362,0.0938 0.246235,0.12352 0.147457,0.0506 0.304293,0.0681 0.456442,0.1021 0.282548,0.0632 0.56512,0.12641 0.847667,0.18967 0.0943,0.0209 0.390658,0.0729 0.456439,0.10209 0.04544,0.0204 0.07028,0.0743 0.115813,0.0944 0.101779,0.0452 0.217349,0.0486 0.32603,0.073 0.282542,0.0633 0.565123,0.12642 0.847673,0.18968 0.0364,0.008 0.2984,0.0563 0.32601,0.073 0.027,0.0163 0.0236,0.0636 0.0506,0.0798 0.0353,0.0212 0.33526,0.075 0.39123,0.0876 0.0217,0.005 0.0462,0.003 0.0652,0.0146 0.0426,0.0257 0.0713,0.072 0.11582,0.0944 0.0398,0.02 0.0869,0.0198 0.1304,0.0292 0.10871,0.024 0.21735,0.0486 0.32602,0.073 0.0435,0.009 0.0922,0.006 0.13041,0.0292 0.027,0.0163 0.0235,0.0636 0.0506,0.0798 0.0472,0.0283 0.35934,0.0618 0.39124,0.0876 0.0245,0.02 0.0262,0.0598 0.0506,0.0798 0.0366,0.0298 0.28949,0.0432 0.32602,0.073 0.0245,0.02 0.0262,0.0598 0.0506,0.0798 0.0176,0.0144 0.16624,0.0372 0.19561,0.0437"
             id="path4552"
             inkscape:connector-curvature="0" />
        </g>
      </g>
    </g>
  </g>
</svg>
